<svg xmlns="http://www.w3.org/2000/svg" fill="none" viewBox="0 0 20 20"><path fill="#8D84C5" d="m17.746 4.234-1.1.84A8.245 8.245 0 0 0 10.192 2C5.668 2 2.006 5.572 2 9.99 1.994 14.414 5.664 18 10.192 18c3.537 0 6.551-2.19 7.698-5.26a.149.149 0 0 0-.005-.118.15.15 0 0 0-.09-.078l-1.107-.37a.157.157 0 0 0-.197.09 6.51 6.51 0 0 1-1.553 2.369 6.737 6.737 0 0 1-4.742 1.92 6.794 6.794 0 0 1-2.61-.515 6.673 6.673 0 0 1-3.571-3.49 6.385 6.385 0 0 1-.527-2.55c0-.887.178-1.743.527-2.55a6.51 6.51 0 0 1 1.439-2.084 6.737 6.737 0 0 1 4.742-1.92 6.78 6.78 0 0 1 2.61.514 6.673 6.673 0 0 1 2.676 2.004l-1.176.895a.152.152 0 0 0 .06.27l3.425.818a.155.155 0 0 0 .193-.147L18 4.352c-.003-.125-.153-.197-.254-.118Z" data-follow-fill="#8D84C5"/></svg>